<svg width="138" height="79" viewBox="0 0 138 79" fill="none" xmlns="http://www.w3.org/2000/svg">
<path d="M7.53226 39.5982L28.2632 56.8741C28.7701 57.3909 29.0672 58.0765 29.0979 58.7991C29.1284 59.5214 28.89 60.2298 28.4284 60.7872C27.9671 61.3447 27.3153 61.7122 26.5986 61.8185C25.882 61.925 25.1514 61.763 24.5473 61.3637L1.0783 41.8432C0.741739 41.5734 0.470131 41.2315 0.283508 40.843C0.0968831 40.4545 0 40.0291 0 39.5982C0 39.1674 0.0968831 38.742 0.283508 38.3535C0.470131 37.965 0.741739 37.6232 1.0783 37.3534L24.5473 17.8328C25.0664 17.3934 25.7245 17.1514 26.4052 17.1495C26.8372 17.1456 27.2645 17.2403 27.6543 17.4264C28.0441 17.6125 28.3861 17.885 28.6542 18.2232C28.9024 18.5161 29.0893 18.8556 29.2042 19.2217C29.319 19.5878 29.3594 19.9731 29.3231 20.355C29.2865 20.7369 29.1741 21.1076 28.992 21.4454C28.8101 21.7833 28.5621 22.0815 28.2632 22.3225L7.53226 39.5982Z" fill="white"/>
<path d="M130.403 39.5982L109.672 56.8741C109.166 57.3909 108.868 58.0765 108.838 58.7991C108.807 59.5214 109.046 60.2298 109.507 60.7872C109.968 61.3447 110.62 61.7122 111.337 61.8185C112.054 61.925 112.784 61.763 113.388 61.3637L136.857 41.8432C137.194 41.5734 137.465 41.2315 137.652 40.843C137.839 40.4545 137.936 40.0291 137.936 39.5982C137.936 39.1674 137.839 38.742 137.652 38.3535C137.465 37.965 137.194 37.6232 136.857 37.3534L113.388 17.8328C112.869 17.3934 112.211 17.1514 111.53 17.1495C111.098 17.1456 110.671 17.2403 110.281 17.4264C109.891 17.6125 109.549 17.885 109.281 18.2232C109.033 18.5161 108.846 18.8556 108.731 19.2217C108.617 19.5878 108.576 19.9731 108.613 20.355C108.649 20.7369 108.762 21.1076 108.944 21.4454C109.126 21.7833 109.373 22.0815 109.672 22.3225L130.403 39.5982Z" fill="white"/>
<path opacity="0.2" d="M71.4448 64.1872V24.6872H56.5829V54.3122H41.7209V64.1872C41.7209 64.8421 41.9819 65.47 42.4465 65.9329C42.9109 66.3959 43.541 66.656 44.198 66.656H54.106C54.7629 66.656 55.3929 66.3959 55.8573 65.9329C56.3219 65.47 56.5829 64.8421 56.5829 64.1872C56.5829 64.8421 56.8438 65.47 57.3084 65.9329C57.7728 66.3959 58.4029 66.656 59.06 66.656H68.9679C69.6248 66.656 70.2548 66.3959 70.7192 65.9329C71.1838 65.47 71.4448 64.8421 71.4448 64.1872ZM99.2799 18.0216L96.7102 27.5571L82.3436 23.6997L84.9135 14.1642C85.0873 13.5349 85.5041 12.9997 86.0726 12.6759C86.6413 12.352 87.3154 12.2658 87.9477 12.4361L97.5152 14.9974C97.8307 15.0799 98.1266 15.2236 98.3863 15.4204C98.6458 15.6172 98.8639 15.8632 99.0277 16.1441C99.1917 16.4251 99.2985 16.7356 99.3417 17.0578C99.385 17.38 99.3641 17.7075 99.2799 18.0216ZM86.4616 65.6993C86.2872 66.3299 85.8718 66.8673 85.3046 67.1961C84.7373 67.525 84.0634 67.619 83.4272 67.4584L73.8599 64.897C73.2272 64.7234 72.688 64.3093 72.3582 63.744C72.0281 63.1786 71.9338 62.5067 72.095 61.8729L74.6649 52.3372L89.0314 56.1638L86.4616 65.6993Z" fill="white"/>
<path d="M101.664 18.6391L88.8456 66.3476C88.5047 67.612 87.6739 68.6896 86.5357 69.3437C85.3978 69.9976 84.0456 70.1742 82.777 69.8347L73.2097 67.2735L72.9 67.1809C72.4384 67.7844 71.8437 68.2736 71.1616 68.6106C70.4798 68.9479 69.729 69.1239 68.9679 69.1249H59.0599C58.1882 69.1227 57.333 68.8883 56.5828 68.4461C55.8327 68.8883 54.9774 69.1227 54.106 69.1249H44.198C42.884 69.1249 41.624 68.6047 40.695 67.6788C39.7659 66.7529 39.244 65.497 39.244 64.1874V14.8125C39.244 13.503 39.7659 12.2471 40.695 11.3212C41.624 10.3952 42.884 9.87501 44.198 9.87501H54.106C54.9774 9.87734 55.8327 10.1117 56.5828 10.5539C57.333 10.1117 58.1882 9.87734 59.0599 9.87501H68.9679C70.2816 9.87501 71.5417 10.3952 72.4707 11.3212C73.3997 12.2471 73.9219 13.503 73.9219 14.8125V45.5485L82.5293 13.5473C82.8097 12.4927 83.4329 11.5605 84.3011 10.8961C85.1694 10.2317 86.2339 9.87268 87.3284 9.87501C87.7558 9.88243 88.1814 9.93414 88.5978 10.0293L98.1653 12.5906C99.434 12.9305 100.515 13.7585 101.171 14.8928C101.827 16.027 102.005 17.3746 101.664 18.6391ZM77.6991 50.5786L87.2666 53.1398L93.6758 29.2856L84.1085 26.7242L77.6991 50.5786ZM84.0465 65.0516L85.9972 57.9231L76.4296 55.3617L74.4791 62.4903L84.0465 65.0516ZM68.9679 64.1874V27.1563H59.0599V64.1874H68.9679ZM54.106 64.1874V56.7813H44.198V64.1874H54.106ZM44.198 14.8125V51.8438H54.106V14.8125H44.198ZM68.9679 14.8125H59.0599V22.2188H68.9679V14.8125ZM96.8959 17.3739L87.3284 14.8125L85.3779 21.9719L94.9761 24.5333L96.8959 17.3739Z" fill="white"/>
</svg>
